<svg xmlns="http://www.w3.org/2000/svg" width="20.228" height="21.685" viewBox="0 0 20.228 21.685"><defs><style>.a{fill:none;stroke:#fff;stroke-linecap:round;stroke-width:3px;}.b{fill:#fff;}</style></defs><g transform="translate(13711.29 13155)"><line class="a" x1="2.88" transform="translate(-13709.79 -13151.477)"/><line class="a" x1="2.88" transform="translate(-13709.79 -13136.84)"/><line class="a" x1="2.88" transform="translate(-13709.79 -13144.157)"/><path class="b" d="M14.681,21.685H2a2,2,0,0,1-2-2V2A2,2,0,0,1,2,0H14.681a2,2,0,0,1,2,2V19.685A2,2,0,0,1,14.681,21.685ZM6.7,11.192a1.623,1.623,0,0,0-.6.109,1.445,1.445,0,0,0-.47.3,1.857,1.857,0,0,0-.327.427,2.508,2.508,0,0,0-.217.492,4.153,4.153,0,0,0-.13.527,5.09,5.09,0,0,0-.068.525c-.011.159-.016.324-.016.491a1.381,1.381,0,0,0,.41,1.044,1.476,1.476,0,0,0,1.056.385h4A1.473,1.473,0,0,0,11.4,15.1a1.381,1.381,0,0,0,.41-1.044c0-.168-.005-.333-.016-.491a5.09,5.09,0,0,0-.068-.525,4.154,4.154,0,0,0-.13-.527,2.508,2.508,0,0,0-.217-.492,1.857,1.857,0,0,0-.327-.427,1.445,1.445,0,0,0-.47-.3,1.63,1.63,0,0,0-.6-.109.613.613,0,0,0-.325.138c-.1.068-.217.141-.339.219a1.939,1.939,0,0,1-.438.193,1.705,1.705,0,0,1-1.072,0,1.949,1.949,0,0,1-.437-.193c-.128-.081-.243-.156-.339-.219A.613.613,0,0,0,6.7,11.192ZM8.288,7.18a2,2,0,0,0-2,2,2,2,0,0,0,2,2A2,2,0,0,0,9.7,7.766,1.939,1.939,0,0,0,8.288,7.18Z" transform="translate(-13707.743 -13155)"/></g></svg>