<svg xmlns="http://www.w3.org/2000/svg" width="20.228" height="21.685"><path d="M4.38 3.523H1.5M4.38 18.16H1.5m2.88-7.317H1.5" fill="none" stroke="#fff" stroke-linecap="round" stroke-width="3"/><path d="M18.228 21.685H5.547a2 2 0 01-2-2V2a2 2 0 012-2h12.681a2 2 0 012 2v17.685a2 2 0 01-2 2zm-7.981-10.493a1.623 1.623 0 00-.6.109 1.445 1.445 0 00-.47.3 1.857 1.857 0 00-.327.427 2.508 2.508 0 00-.217.492 4.153 4.153 0 00-.13.527 5.09 5.09 0 00-.068.525 7.149 7.149 0 00-.016.491 1.381 1.381 0 00.41 1.044 1.476 1.476 0 001.056.385h4a1.473 1.473 0 001.062-.392 1.381 1.381 0 00.41-1.044c0-.168-.005-.333-.016-.491a5.09 5.09 0 00-.068-.525 4.154 4.154 0 00-.13-.527 2.508 2.508 0 00-.217-.492 1.857 1.857 0 00-.327-.427 1.445 1.445 0 00-.47-.3 1.63 1.63 0 00-.6-.109.613.613 0 00-.325.138c-.1.068-.217.141-.339.219a1.939 1.939 0 01-.438.193 1.705 1.705 0 01-1.072 0 1.949 1.949 0 01-.437-.193 24.074 24.074 0 01-.339-.219.613.613 0 00-.332-.131zm1.588-4.012a2 2 0 00-2 2 2 2 0 002 2 2 2 0 001.412-3.414 1.939 1.939 0 00-1.412-.586z" fill="#fff"/></svg>