<svg xmlns="http://www.w3.org/2000/svg" width="12.211" height="20" viewBox="0 0 12.211 20"><defs><style>.a{fill:#fff;}</style></defs><g transform="translate(433.593 -1750.775)"><path class="a" d="M-430.017,1763.994v-.98a4.343,4.343,0,0,1,.543-2.212,7.111,7.111,0,0,1,1.987-2,8.307,8.307,0,0,0,1.834-1.616,2.34,2.34,0,0,0,.444-1.391,1.506,1.506,0,0,0-.636-1.311,3.033,3.033,0,0,0-1.775-.45,10.189,10.189,0,0,0-4.53,1.3l-1.444-2.9a12.618,12.618,0,0,1,6.265-1.656,6.663,6.663,0,0,1,4.338,1.311,4.281,4.281,0,0,1,1.609,3.5,4.652,4.652,0,0,1-.662,2.517,9.437,9.437,0,0,1-2.517,2.384,7.782,7.782,0,0,0-1.609,1.43,2.221,2.221,0,0,0-.338,1.285v.795Zm-.424,4.53a2.221,2.221,0,0,1,.6-1.682,2.419,2.419,0,0,1,1.735-.57,2.348,2.348,0,0,1,1.7.583,2.214,2.214,0,0,1,.6,1.669,2.216,2.216,0,0,1-.609,1.649,2.307,2.307,0,0,1-1.7.6,2.376,2.376,0,0,1-1.722-.59A2.205,2.205,0,0,1-430.441,1768.523Z" transform="translate(0 0)"/></g></svg>