<svg xmlns="http://www.w3.org/2000/svg" width="12.211" height="20"><path d="M3.576 13.219v-.98a4.343 4.343 0 01.543-2.212 7.111 7.111 0 011.987-2A8.307 8.307 0 007.94 6.411a2.34 2.34 0 00.444-1.391 1.506 1.506 0 00-.636-1.311 3.033 3.033 0 00-1.775-.45 10.189 10.189 0 00-4.53 1.3l-1.444-2.9A12.618 12.618 0 016.264.003a6.663 6.663 0 014.338 1.311 4.281 4.281 0 011.609 3.5 4.652 4.652 0 01-.662 2.517 9.437 9.437 0 01-2.517 2.384 7.782 7.782 0 00-1.609 1.43 2.221 2.221 0 00-.338 1.285v.795zm-.424 4.53a2.221 2.221 0 01.6-1.682 2.419 2.419 0 011.735-.57 2.348 2.348 0 011.7.583 2.214 2.214 0 01.6 1.669 2.216 2.216 0 01-.609 1.649 2.307 2.307 0 01-1.7.6 2.376 2.376 0 01-1.722-.59 2.205 2.205 0 01-.604-1.66z" fill="#333"/></svg>