<svg xmlns="http://www.w3.org/2000/svg" width="20" height="15" viewBox="0 0 20 15"><defs><style>.a{fill:#fff;}</style></defs><g transform="translate(0 -64)"><g transform="translate(0 64)"><path class="a" d="M7.061,65.217c2.745,2.325,7.561,6.414,8.977,7.69a.836.836,0,0,0,1.21,0c1.417-1.276,6.233-5.367,8.978-7.691a.416.416,0,0,0,.059-.575A1.655,1.655,0,0,0,24.977,64H8.31A1.655,1.655,0,0,0,7,64.642.416.416,0,0,0,7.061,65.217Z" transform="translate(-6.644 -64)"/><path class="a" d="M344.885,126.45a.415.415,0,0,0-.444.06c-1.8,1.524-4.166,3.537-5.953,5.074a.416.416,0,0,0,.011.641c1.66,1.329,4.161,3.158,5.967,4.458a.417.417,0,0,0,.66-.338v-9.516A.417.417,0,0,0,344.885,126.45Z" transform="translate(-325.127 -123.974)"/><path class="a" d="M.66,136.692c1.807-1.3,4.308-3.128,5.968-4.458a.416.416,0,0,0,.011-.641c-1.786-1.536-4.155-3.55-5.953-5.074a.417.417,0,0,0-.686.318v9.516a.417.417,0,0,0,.66.338Z" transform="translate(0 -123.982)"/><path class="a" d="M27.776,289.841c-1.744-1.248-4.958-3.575-6.876-5.131a.418.418,0,0,0-.536.009c-.376.328-.691.605-.915.806a1.687,1.687,0,0,1-2.326,0c-.223-.2-.537-.478-.914-.805a.415.415,0,0,0-.536-.009c-1.912,1.551-5.129,3.881-6.876,5.131a.417.417,0,0,0-.063.622A1.669,1.669,0,0,0,9.953,291H26.62a1.672,1.672,0,0,0,1.219-.535.417.417,0,0,0-.063-.623Z" transform="translate(-8.287 -275.998)"/></g></g></svg>