<svg xmlns="http://www.w3.org/2000/svg" width="20" height="15"><defs><style>.a{fill:#333}</style></defs><path class="a" d="M.417 1.217c2.745 2.325 7.561 6.414 8.977 7.69a.836.836 0 001.21 0c1.417-1.276 6.233-5.367 8.978-7.691a.416.416 0 00.059-.575A1.655 1.655 0 0018.333 0H1.666a1.655 1.655 0 00-1.31.642.416.416 0 00.061.575zm19.341 1.259a.415.415 0 00-.444.06 1112.84 1112.84 0 00-5.953 5.074.416.416 0 00.011.641c1.66 1.329 4.161 3.158 5.967 4.458a.417.417 0 00.66-.338V2.855a.417.417 0 00-.241-.379zM.66 12.71c1.807-1.3 4.308-3.128 5.968-4.458a.416.416 0 00.011-.641C4.853 6.075 2.484 4.061.686 2.537A.417.417 0 000 2.855v9.516a.417.417 0 00.66.338z"/><path class="a" d="M19.489 13.843c-1.744-1.248-4.958-3.575-6.876-5.131a.418.418 0 00-.536.009 94.4 94.4 0 00-.915.806 1.687 1.687 0 01-2.326 0 75.16 75.16 0 00-.914-.805.415.415 0 00-.536-.009C5.474 10.264 2.257 12.594.51 13.844a.417.417 0 00-.063.622 1.669 1.669 0 001.219.536h16.667a1.672 1.672 0 001.219-.535.417.417 0 00-.063-.623z"/></svg>