<svg xmlns="http://www.w3.org/2000/svg" width="24.047" height="24.048" viewBox="0 0 24.047 24.048">
  <g id="key" transform="translate(-0.001 0.001)">
    <g id="Group_7520" data-name="Group 7520" transform="translate(0.001 0)">
      <path id="Path_9845" data-name="Path 9845" d="M21.782,2.266A7.745,7.745,0,0,0,8.935,10.131L.207,18.858a.7.7,0,0,0-.206.5v3.985a.7.7,0,0,0,.7.7H4.691a.7.7,0,0,0,.5-.206l1-1a.7.7,0,0,0,.2-.579l-.124-1.071,1.483-.14a.7.7,0,0,0,.635-.635l.14-1.483,1.071.125a.693.693,0,0,0,.55-.173.706.706,0,0,0,.236-.526V17.048h1.288a.7.7,0,0,0,.5-.206l1.807-1.783a7.629,7.629,0,0,0,7.812-1.834A7.758,7.758,0,0,0,21.782,2.266ZM19.789,7.247a2.113,2.113,0,1,1,0-2.989A2.115,2.115,0,0,1,19.789,7.247Z" transform="translate(-0.001 0)"/>
    </g>
  </g>
</svg>
