<svg xmlns="http://www.w3.org/2000/svg" width="21.999" height="18.661" viewBox="0 0 21.999 18.661"><defs><style>.a{fill:#fff;}</style></defs><g transform="translate(0 -38.84)"><g transform="translate(17.122 48.915)"><g transform="translate(0 0)"><path class="a" d="M400.2,273.32h-1.7a4.426,4.426,0,0,1,.268,1.521v6.43a1.9,1.9,0,0,1-.109.635h2.813A1.908,1.908,0,0,0,403.371,280V276.5A3.179,3.179,0,0,0,400.2,273.32Z" transform="translate(-398.494 -273.32)"/></g></g><g transform="translate(0 48.915)"><g transform="translate(0 0)"><path class="a" d="M4.609,274.842a4.425,4.425,0,0,1,.268-1.521h-1.7A3.179,3.179,0,0,0,0,276.5V280a1.908,1.908,0,0,0,1.905,1.905H4.718a1.9,1.9,0,0,1-.109-.635Z" transform="translate(0 -273.321)"/></g></g><g transform="translate(5.879 47.26)"><g transform="translate(0 0)"><path class="a" d="M143.894,234.815H140a3.179,3.179,0,0,0-3.176,3.176v6.43a.635.635,0,0,0,.635.635h8.971a.635.635,0,0,0,.635-.635v-6.43A3.179,3.179,0,0,0,143.894,234.815Z" transform="translate(-136.829 -234.815)"/></g></g><g transform="translate(7.18 38.84)"><g transform="translate(0 0)"><path class="a" d="M170.933,38.84a3.819,3.819,0,1,0,3.819,3.819A3.823,3.823,0,0,0,170.933,38.84Z" transform="translate(-167.114 -38.84)"/></g></g><g transform="translate(1.437 42.4)"><path class="a" d="M36.3,121.689a2.855,2.855,0,1,0,2.856,2.856A2.859,2.859,0,0,0,36.3,121.689Z" transform="translate(-33.443 -121.689)"/></g><g transform="translate(14.85 42.4)"><path class="a" d="M348.463,121.689a2.856,2.856,0,1,0,2.856,2.856A2.859,2.859,0,0,0,348.463,121.689Z" transform="translate(-345.607 -121.689)"/></g></g></svg>