<svg xmlns="http://www.w3.org/2000/svg" width="21.999" height="18.661"><path d="M18.828 10.075h-1.7a4.426 4.426 0 01.268 1.521v6.43a1.9 1.9 0 01-.109.635H20.1a1.908 1.908 0 001.899-1.906v-3.5a3.179 3.179 0 00-3.171-3.18zM4.609 11.596a4.425 4.425 0 01.268-1.521h-1.7A3.179 3.179 0 000 13.254v3.5a1.908 1.908 0 001.905 1.905h2.813a1.9 1.9 0 01-.109-.635zm8.335-3.176H9.05a3.179 3.179 0 00-3.176 3.176v6.43a.635.635 0 00.635.635h8.971a.635.635 0 00.635-.635v-6.43a3.179 3.179 0 00-3.171-3.176zM10.999 0a3.819 3.819 0 103.819 3.819A3.823 3.823 0 0010.999 0zM4.294 3.56A2.855 2.855 0 107.15 6.416 2.859 2.859 0 004.294 3.56zm13.412 0a2.856 2.856 0 102.856 2.856 2.859 2.859 0 00-2.856-2.856z" fill="#fff"/></svg>